<?xml version="1.0" standalone="no"?>
<!DOCTYPE svg PUBLIC "-//W3C//DTD SVG 20010904//EN"
 "http://www.w3.org/TR/2001/REC-SVG-20010904/DTD/svg10.dtd">
<svg version="1.0" xmlns="http://www.w3.org/2000/svg"
 width="256.000000pt" height="256.000000pt" viewBox="0 0 256.000000 256.000000"
 preserveAspectRatio="xMidYMid meet">

<g transform="translate(0.000000,256.000000) scale(0.100000,-0.100000)"
fill="#000000" stroke="none">
<path d="M1150 2369 c-116 -13 -244 -54 -365 -114 -281 -141 -483 -391 -566
-701 -30 -112 -37 -346 -15 -467 105 -555 627 -947 1182 -887 459 49 832 366
952 809 23 86 26 114 26 276 1 166 -1 188 -26 278 -123 441 -491 756 -941 806
-107 12 -139 12 -247 0z m315 -188 c459 -95 776 -527 724 -988 -22 -199 -104
-381 -237 -523 -182 -196 -405 -294 -672 -294 -150 0 -259 24 -386 83 -105 50
-162 89 -248 170 -183 176 -279 400 -279 656 0 190 46 349 145 500 206 314
586 472 953 396z"/>
<path d="M1250 2052 c-63 -11 -110 -72 -110 -144 0 -82 58 -138 141 -138 174
0 191 249 19 282 -14 3 -36 3 -50 0z"/>
<path d="M765 1854 c-45 -22 -68 -61 -72 -118 -5 -67 21 -110 82 -137 61 -27
108 -18 156 30 48 48 57 95 30 156 -34 76 -121 107 -196 69z"/>
<path d="M1675 1860 c-11 -4 -33 -22 -49 -39 -23 -24 -30 -42 -33 -83 -5 -69
20 -112 82 -139 134 -59 258 94 173 214 -36 50 -115 72 -173 47z"/>
<path d="M1148 1607 c-86 -37 -143 -90 -189 -177 -21 -39 -24 -59 -24 -150 0
-96 3 -110 28 -158 37 -70 97 -128 166 -161 48 -22 69 -26 151 -26 81 0 103 4
150 26 120 57 192 167 198 304 5 104 -20 174 -89 250 -72 77 -139 108 -248
112 -73 3 -95 0 -143 -20z"/>
<path d="M579 1407 c-100 -67 -85 -210 26 -253 39 -14 52 -15 87 -5 75 23 118
91 104 166 -19 97 -135 147 -217 92z"/>
<path d="M1832 1410 c-116 -71 -84 -240 51 -265 58 -11 124 26 149 83 58 129
-80 255 -200 182z"/>
<path d="M756 951 c-43 -29 -66 -70 -66 -121 0 -85 61 -144 149 -142 142 2
188 202 61 267 -40 21 -109 19 -144 -4z"/>
<path d="M1655 950 c-63 -42 -84 -132 -44 -197 75 -120 263 -66 263 76 0 56
-20 93 -67 121 -42 26 -113 26 -152 0z"/>
<path d="M1203 760 c-87 -52 -83 -198 6 -245 98 -50 211 16 211 123 0 85 -56
142 -140 142 -27 0 -58 -8 -77 -20z"/>
</g>
</svg>
